<svg xmlns="http://www.w3.org/2000/svg" version="1.1" xmlns:xlink="http://www.w3.org/1999/xlink" xmlns:svgjs="http://svgjs.dev/svgjs" width="1000" height="1000"><style>
    #light-icon {
      display: inline;
    }
    #dark-icon {
      display: none;
    }

    @media (prefers-color-scheme: dark) {
      #light-icon {
        display: none;
      }
      #dark-icon {
        display: inline;
      }
    }
  </style><g id="light-icon"><svg xmlns="http://www.w3.org/2000/svg" version="1.1" xmlns:xlink="http://www.w3.org/1999/xlink" xmlns:svgjs="http://svgjs.dev/svgjs" width="1000" height="1000"><g><g transform="matrix(1.0893246187363834,0,0,1.0893246187363834,0,350.21786492374724)"><svg xmlns="http://www.w3.org/2000/svg" version="1.1" xmlns:xlink="http://www.w3.org/1999/xlink" xmlns:svgjs="http://svgjs.dev/svgjs" width="918" height="275"><svg width="918" height="275" viewBox="0 0 918 275" fill="none" xmlns="http://www.w3.org/2000/svg">
<g clip-path="url(#clip0_31_2388)">
<path d="M457.792 208.073H326.265V243.391H457.792V208.073Z" fill="black"></path>
<path d="M279.565 100.767C273.116 95.0824 265.392 92.2399 256.25 92.2399C247.108 92.2399 239.526 95.0824 233.431 100.767C227.337 106.453 223.652 114.056 222.518 123.508H289.982C289.486 114.056 286.014 106.453 279.565 100.767ZM255.754 208.641C234.99 208.641 218.053 201.89 205.014 188.388C191.975 174.886 185.455 157.049 185.455 134.807C185.455 112.564 192.046 94.8692 205.156 81.5094C218.266 68.1495 235.274 61.5406 256.108 61.5406C276.943 61.5406 294.092 68.0074 307.486 81.0119C320.879 94.0165 327.541 111.356 327.541 133.03C327.541 154.704 327.187 142.695 326.478 146.959H222.447C223.298 156.268 226.699 163.729 232.723 169.414C238.746 175.099 246.4 177.942 255.612 177.942C264.825 177.942 277.439 172.754 283.392 162.45H322.509C318.399 176.023 310.391 187.109 298.557 195.779C286.722 204.377 272.407 208.712 255.541 208.712" fill="black"></path>
<path d="M83.5505 112.422C77.6687 109.935 71.9995 103.752 75.3301 97.2143C77.0309 93.8032 80.3616 91.8845 83.5505 92.0267C96.5898 92.0267 105.094 111.356 105.094 111.356C98.2906 114.127 90.4245 115.406 83.4088 112.422M147.471 121.731C147.471 121.731 151.085 119.173 152.857 117.752C169.581 104.321 178.369 86.9812 178.369 67.652C178.369 48.3229 172.062 30.2018 159.66 18.1921C141.589 0.568457 117.495 0.284204 113.456 0.355267H0V206.865H35.2202V33.1864H114.094C115.227 33.1864 128.55 33.3996 137.125 41.9272C140.03 44.7697 142.227 48.465 143.645 52.942C144.991 57.1347 145.7 62.038 145.7 67.652C145.7 73.266 145.558 70.7788 145.274 72.2001C144.353 79.9459 140.739 88.6156 130.605 96.0773C130.96 95.8641 119.692 83.8544 118.558 82.7885C113.952 78.4536 108.85 74.5452 103.251 71.6316C84.7552 62.1802 60.4484 65.7333 51.2358 86.1284C45.6374 98.5645 45.5666 113.061 54.9208 123.65C66.4011 136.583 84.4009 139.213 100.771 138.502C102.33 138.431 117.779 136.086 117.353 135.517L162.707 207.149H201.471L147.4 121.731H147.471Z" fill="black"></path>
<path d="M528.608 71.8804C536.594 67.5811 545.722 65.4279 555.976 65.4279C567.917 65.4279 578.724 68.3841 588.397 74.2823C598.063 80.1877 605.717 88.5731 611.357 99.4529C616.991 110.333 619.812 122.939 619.812 137.273C619.812 151.606 616.991 164.305 611.357 175.348C605.717 186.399 598.07 194.955 588.397 201.023C578.724 207.092 567.917 210.134 555.976 210.134C545.715 210.134 536.679 208.023 528.856 203.809C521.032 199.595 514.683 194.279 509.807 187.87V274.645H474.488V67.709H509.807V87.9478C514.35 81.5379 520.614 76.1868 528.601 71.8804H528.608ZM578.554 115.392C575.103 109.238 570.56 104.555 564.933 101.35C559.293 98.1453 553.205 96.5464 546.643 96.5464C540.081 96.5464 534.242 98.188 528.608 101.478C522.967 104.768 518.431 109.537 514.987 115.769C511.536 122.008 509.814 129.349 509.814 137.777C509.814 146.205 511.536 153.546 514.987 159.785C518.431 166.025 522.974 170.793 528.608 174.076C534.242 177.366 540.251 179.008 546.643 179.008C553.035 179.008 559.3 177.324 564.933 173.948C570.567 170.573 575.11 165.769 578.554 159.53C581.998 153.29 583.727 145.871 583.727 137.266C583.727 128.66 581.998 121.539 578.554 115.385V115.392Z" fill="black"></path>
<path d="M637.337 99.5808C642.971 88.6229 650.624 80.1877 660.297 74.2823C669.963 68.3841 680.77 65.4279 692.718 65.4279C703.143 65.4279 712.27 67.5384 720.094 71.7525C727.917 75.9736 734.175 81.282 738.887 87.6919V67.709H774.462V207.86H738.887V187.365C734.345 193.945 728.08 199.382 720.094 203.681C712.1 207.98 702.895 210.134 692.47 210.134C680.692 210.134 669.97 207.099 660.304 201.023C650.631 194.955 642.978 186.391 637.344 175.348C631.71 164.305 628.89 151.613 628.89 137.273C628.89 122.932 631.703 110.546 637.344 99.5808H637.337ZM733.835 115.648C730.468 109.494 725.926 104.768 720.214 101.478C714.495 98.188 708.358 96.5464 701.796 96.5464C695.234 96.5464 689.182 98.1524 683.633 101.35C678.085 104.555 673.585 109.238 670.141 115.392C666.689 121.554 664.967 128.845 664.967 137.273C664.967 145.701 666.689 153.084 670.141 159.409C673.585 165.733 678.127 170.58 683.761 173.955C689.395 177.331 695.404 179.015 701.803 179.015C708.202 179.015 714.502 177.374 720.221 174.083C725.933 170.793 730.475 166.075 733.842 159.913C737.208 153.759 738.887 146.376 738.887 137.777C738.887 129.179 737.201 121.802 733.842 115.641L733.835 115.648Z" fill="black"></path>
<path d="M791.732 45.0612C787.607 41.103 785.552 36.1641 785.552 30.2587C785.552 24.3534 787.607 19.4216 791.732 15.4563C795.849 11.4981 801.022 9.5083 807.244 9.5083C813.466 9.5083 818.639 11.491 822.757 15.4563C826.874 19.4216 828.936 24.3534 828.936 30.2587C828.936 36.1641 826.874 41.0958 822.757 45.0612C818.632 49.0265 813.459 51.0092 807.244 51.0092C801.029 51.0092 795.849 49.0265 791.732 45.0612ZM824.656 67.709V207.86H789.336V67.709H824.656Z" fill="black"></path>
<path d="M892.899 72.0083C900.213 67.7943 908.582 65.6837 918 65.6837V102.871H908.667C897.569 102.871 889.2 105.486 883.566 110.716C877.925 115.947 875.112 125.05 875.112 138.04V207.867H839.793V67.709H875.112V89.4685C879.655 82.0496 885.579 76.2295 892.899 72.0154V72.0083Z" fill="black"></path>
</g>
<defs>
<clipPath id="clip0_31_2388">
<rect width="918" height="275" fill="white"></rect>
</clipPath>
</defs>
</svg></svg></g></g></svg></g><g id="dark-icon"><svg xmlns="http://www.w3.org/2000/svg" version="1.1" xmlns:xlink="http://www.w3.org/1999/xlink" xmlns:svgjs="http://svgjs.dev/svgjs" width="1000" height="1000"><g><g transform="matrix(1.0893246187363834,0,0,1.0893246187363834,0,350.21786492374724)"><svg xmlns="http://www.w3.org/2000/svg" version="1.1" xmlns:xlink="http://www.w3.org/1999/xlink" xmlns:svgjs="http://svgjs.dev/svgjs" width="918" height="275"><svg width="918" height="275" viewBox="0 0 918 275" fill="none" xmlns="http://www.w3.org/2000/svg">
<g clip-path="url(#clip0_90_417)">
<path d="M457.792 208.073H326.265V243.391H457.792V208.073Z" fill="white"></path>
<path d="M279.565 100.767C273.116 95.0824 265.392 92.2399 256.25 92.2399C247.108 92.2399 239.526 95.0824 233.431 100.767C227.337 106.453 223.652 114.056 222.518 123.508H289.982C289.486 114.056 286.014 106.453 279.565 100.767ZM255.754 208.641C234.99 208.641 218.053 201.89 205.014 188.388C191.975 174.886 185.455 157.049 185.455 134.807C185.455 112.564 192.046 94.8692 205.156 81.5094C218.266 68.1495 235.274 61.5406 256.108 61.5406C276.943 61.5406 294.092 68.0074 307.486 81.0119C320.879 94.0165 327.541 111.356 327.541 133.03C327.541 154.704 327.187 142.695 326.478 146.959H222.447C223.298 156.268 226.699 163.729 232.723 169.414C238.746 175.099 246.4 177.942 255.612 177.942C264.825 177.942 277.439 172.754 283.392 162.45H322.509C318.399 176.023 310.391 187.109 298.557 195.779C286.722 204.377 272.407 208.712 255.541 208.712" fill="white"></path>
<path d="M83.5505 112.422C77.6687 109.935 71.9994 103.752 75.3301 97.2143C77.0309 93.8033 80.3616 91.8846 83.5505 92.0267C96.5898 92.0267 105.094 111.356 105.094 111.356C98.2906 114.127 90.4245 115.406 83.4088 112.422M147.471 121.731C147.471 121.731 151.085 119.173 152.857 117.752C169.581 104.321 178.369 86.9812 178.369 67.6521C178.369 48.3229 172.062 30.2018 159.66 18.1922C141.589 0.568518 117.495 0.284265 113.456 0.355328H0V206.865H35.2202V33.1865H114.094C115.227 33.1865 128.55 33.3997 137.125 41.9272C140.03 44.7698 142.227 48.465 143.645 52.942C144.991 57.1347 145.7 62.0381 145.7 67.6521C145.7 73.2661 145.558 70.7789 145.274 72.2001C144.353 79.946 140.739 88.6157 130.605 96.0773C130.96 95.8641 119.692 83.8545 118.558 82.7885C113.952 78.4537 108.85 74.5452 103.251 71.6316C84.7552 62.1802 60.4484 65.7334 51.2358 86.1285C45.6374 98.5645 45.5666 113.061 54.9208 123.65C66.4011 136.583 84.4009 139.213 100.771 138.502C102.33 138.431 117.779 136.086 117.353 135.517L162.707 207.149H201.471L147.4 121.731H147.471Z" fill="white"></path>
<path d="M528.608 71.8803C536.594 67.581 545.722 65.4278 555.976 65.4278C567.917 65.4278 578.724 68.384 588.397 74.2823C598.063 80.1876 605.716 88.573 611.357 99.4528C616.991 110.333 619.812 122.939 619.812 137.273C619.812 151.606 616.991 164.305 611.357 175.348C605.716 186.399 598.07 194.955 588.397 201.023C578.724 207.092 567.917 210.134 555.976 210.134C545.715 210.134 536.679 208.023 528.856 203.809C521.032 199.595 514.683 194.279 509.807 187.87V274.645H474.488V67.7089H509.807V87.9477C514.349 81.5378 520.614 76.1868 528.601 71.8803H528.608ZM578.554 115.392C575.103 109.238 570.56 104.555 564.933 101.35C559.292 98.1452 553.205 96.5463 546.643 96.5463C540.081 96.5463 534.241 98.1879 528.608 101.478C522.967 104.768 518.431 109.537 514.987 115.769C511.536 122.008 509.814 129.349 509.814 137.777C509.814 146.205 511.536 153.546 514.987 159.785C518.431 166.025 522.974 170.793 528.608 174.076C534.241 177.366 540.251 179.008 546.643 179.008C553.035 179.008 559.299 177.324 564.933 173.948C570.567 170.573 575.11 165.769 578.554 159.53C581.998 153.29 583.727 145.871 583.727 137.265C583.727 128.66 581.998 121.539 578.554 115.385V115.392Z" fill="white"></path>
<path d="M637.337 99.5807C642.971 88.6228 650.624 80.1876 660.297 74.2823C669.963 68.384 680.77 65.4278 692.718 65.4278C703.143 65.4278 712.27 67.5384 720.094 71.7524C727.917 75.9736 734.175 81.282 738.887 87.6919V67.7089H774.462V207.86H738.887V187.365C734.345 193.945 728.08 199.382 720.094 203.681C712.1 207.98 702.895 210.134 692.47 210.134C680.692 210.134 669.97 207.099 660.304 201.023C650.631 194.955 642.978 186.391 637.344 175.348C631.71 164.305 628.89 151.613 628.89 137.273C628.89 122.932 631.703 110.546 637.344 99.5807H637.337ZM733.835 115.648C730.468 109.494 725.926 104.768 720.214 101.478C714.495 98.1879 708.358 96.5463 701.796 96.5463C695.234 96.5463 689.182 98.1524 683.633 101.35C678.085 104.555 673.585 109.238 670.141 115.392C666.689 121.553 664.967 128.845 664.967 137.273C664.967 145.701 666.689 153.084 670.141 159.409C673.585 165.733 678.127 170.58 683.761 173.955C689.395 177.331 695.404 179.015 701.803 179.015C708.202 179.015 714.502 177.374 720.221 174.083C725.933 170.793 730.475 166.074 733.842 159.913C737.208 153.759 738.887 146.376 738.887 137.777C738.887 129.179 737.201 121.802 733.842 115.641L733.835 115.648Z" fill="white"></path>
<path d="M791.731 45.0611C787.607 41.1029 785.552 36.164 785.552 30.2587C785.552 24.3533 787.607 19.4215 791.731 15.4562C795.849 11.498 801.022 9.50824 807.244 9.50824C813.466 9.50824 818.639 11.4909 822.756 15.4562C826.874 19.4215 828.936 24.3533 828.936 30.2587C828.936 36.164 826.874 41.0958 822.756 45.0611C818.632 49.0264 813.459 51.0091 807.244 51.0091C801.029 51.0091 795.849 49.0264 791.731 45.0611ZM824.656 67.7089V207.86H789.336V67.7089H824.656Z" fill="white"></path>
<path d="M892.899 72.0082C900.213 67.7942 908.582 65.6836 918 65.6836V102.871H908.667C897.569 102.871 889.2 105.486 883.566 110.716C877.925 115.947 875.112 125.05 875.112 138.04V207.867H839.793V67.7089H875.112V89.4684C879.655 82.0494 885.579 76.2294 892.899 72.0153V72.0082Z" fill="white"></path>
</g>
<defs>
<clipPath id="clip0_90_417">
<rect width="918" height="275" fill="white"></rect>
</clipPath>
</defs>
</svg></svg></g></g></svg></g></svg>